<svg width="121" height="99" viewBox="0 0 121 99" fill="none" xmlns="http://www.w3.org/2000/svg">
<path d="M96.0194 99C85.871 99 78.1946 94.8095 72.9903 86.4286C68.5667 79.3571 66.3549 70.7143 66.3549 60.5C66.3549 47.4048 69.6075 35.619 76.1129 25.1429C82.8785 14.6667 93.0269 6.28573 106.558 0L110.071 7.07143C102.004 10.4762 94.9785 15.8452 88.9936 23.1786C83.2688 30.5119 80.4064 37.9762 80.4064 45.5714C80.4064 48.7143 80.7968 51.4643 81.5774 53.8214C85.7409 50.4167 90.5548 48.7143 96.0194 48.7143C103.045 48.7143 108.9 51.0714 113.584 55.7857C118.528 60.2381 121 66.2619 121 73.8571C121 80.9286 118.528 86.9524 113.584 91.9286C108.9 96.6428 103.045 99 96.0194 99ZM29.6645 99C19.5161 99 11.8398 94.8095 6.63548 86.4286C2.21183 79.3571 0 70.7143 0 60.5C0 47.4048 3.25269 35.619 9.75806 25.1429C16.5237 14.6667 26.672 6.28573 40.2032 0L43.7161 7.07143C35.6495 10.4762 28.6237 15.8452 22.6387 23.1786C16.914 30.5119 14.0516 37.9762 14.0516 45.5714C14.0516 48.7143 14.4419 51.4643 15.2226 53.8214C19.386 50.4167 24.2 48.7143 29.6645 48.7143C36.6903 48.7143 42.5452 51.0714 47.229 55.7857C52.1731 60.2381 54.6452 66.2619 54.6452 73.8571C54.6452 80.9286 52.1731 86.9524 47.229 91.9286C42.5452 96.6428 36.6903 99 29.6645 99Z" fill="url(#paint0_linear)"/>
<defs>
<linearGradient id="paint0_linear" x1="-14.5564" y1="0" x2="132.827" y2="0" gradientUnits="userSpaceOnUse">
<stop stop-color="#EB2127"/>
<stop offset="1" stop-color="#EB2127" stop-opacity="0"/>
</linearGradient>
</defs>
</svg>
